<mxfile>
    <diagram id="Z1m4EYd7OegtZ1p46jpr" name="Page-1">
        <mxGraphModel dx="1968" dy="1648" grid="1" gridSize="10" guides="1" tooltips="1" connect="1" arrows="1" fold="1" page="1" pageScale="1" pageWidth="850" pageHeight="1100" background="#EEEEEE" math="0" shadow="0">
            <root>
                <mxCell id="0"/>
                <mxCell id="1" parent="0"/>
                <mxCell id="9" value="" style="swimlane;html=1;childLayout=stackLayout;resizeParent=1;resizeParentMax=0;startSize=0;horizontal=0;horizontalStack=1;rounded=1;fillColor=#F5AB50;strokeColor=#909090;fontColor=#1A1A1A;" parent="1" vertex="1">
                    <mxGeometry x="280" y="-1060" width="290" height="100" as="geometry"/>
                </mxCell>
                <mxCell id="10" value="enemyarmy" style="swimlane;html=1;startSize=130;rounded=1;fillColor=#F5AB50;strokeColor=#909090;fontColor=#1A1A1A;" parent="9" vertex="1">
                    <mxGeometry width="120" height="100" as="geometry"/>
                </mxCell>
                <mxCell id="11" value="myarmy =&amp;nbsp;0.0954&lt;br&gt;enemyarmy = 0.6583&lt;br&gt;betrayal = 0.5753&lt;br&gt;enemybetrayal = 0.1992&lt;br&gt;expected = 0.1804" style="swimlane;html=1;startSize=130;fontStyle=0;align=left;verticalAlign=middle;spacingRight=1;spacingLeft=13;spacingTop=0;rounded=1;fillColor=#F5AB50;strokeColor=#909090;fontColor=#1A1A1A;" parent="9" vertex="1">
                    <mxGeometry x="120" width="170" height="100" as="geometry"/>
                </mxCell>
                <mxCell id="15" style="edgeStyle=orthogonalEdgeStyle;orthogonalLoop=1;jettySize=auto;html=1;exitX=0.5;exitY=1;exitDx=0;exitDy=0;entryX=0.5;entryY=0;entryDx=0;entryDy=0;strokeColor=#182E3E;fontColor=#1A1A1A;labelBackgroundColor=#EEEEEE;" parent="1" source="10" target="23" edge="1">
                    <mxGeometry relative="1" as="geometry">
                        <mxPoint x="210" y="-800" as="targetPoint"/>
                    </mxGeometry>
                </mxCell>
                <mxCell id="16" style="edgeStyle=orthogonalEdgeStyle;orthogonalLoop=1;jettySize=auto;html=1;exitX=0.324;exitY=1.02;exitDx=0;exitDy=0;entryX=0.5;entryY=0;entryDx=0;entryDy=0;exitPerimeter=0;strokeColor=#182E3E;fontColor=#1A1A1A;labelBackgroundColor=#EEEEEE;" parent="1" source="11" target="24" edge="1">
                    <mxGeometry relative="1" as="geometry">
                        <mxPoint x="443" y="-810" as="targetPoint"/>
                    </mxGeometry>
                </mxCell>
                <mxCell id="17" style="edgeStyle=orthogonalEdgeStyle;orthogonalLoop=1;jettySize=auto;html=1;exitX=0.75;exitY=1;exitDx=0;exitDy=0;entryX=0.75;entryY=0;entryDx=0;entryDy=0;strokeColor=#182E3E;fontColor=#1A1A1A;labelBackgroundColor=#EEEEEE;" parent="1" source="11" target="32" edge="1">
                    <mxGeometry relative="1" as="geometry">
                        <mxPoint x="640" y="-800" as="targetPoint"/>
                    </mxGeometry>
                </mxCell>
                <mxCell id="18" value="small {7, 9, 10, 11}" style="text;html=1;align=center;verticalAlign=middle;resizable=0;points=[];autosize=1;rounded=1;fontColor=#1A1A1A;" parent="1" vertex="1">
                    <mxGeometry x="225" y="-930" width="110" height="20" as="geometry"/>
                </mxCell>
                <mxCell id="19" value="medium {1, 3}" style="text;html=1;align=center;verticalAlign=middle;resizable=0;points=[];autosize=1;rounded=1;fontColor=#1A1A1A;" parent="1" vertex="1">
                    <mxGeometry x="365" y="-936" width="90" height="20" as="geometry"/>
                </mxCell>
                <mxCell id="20" value="large {2, 4, 5, 6, 8, 12}" style="text;html=1;align=center;verticalAlign=middle;resizable=0;points=[];autosize=1;rounded=1;fontColor=#1A1A1A;" parent="1" vertex="1">
                    <mxGeometry x="540" y="-930" width="130" height="20" as="geometry"/>
                </mxCell>
                <mxCell id="21" value="" style="swimlane;html=1;childLayout=stackLayout;resizeParent=1;resizeParentMax=0;startSize=0;horizontal=0;horizontalStack=1;rounded=1;fillColor=#F5AB50;strokeColor=#909090;fontColor=#1A1A1A;" parent="1" vertex="1">
                    <mxGeometry x="20" y="-860" width="290" height="100" as="geometry"/>
                </mxCell>
                <mxCell id="22" value="betrayal" style="swimlane;html=1;startSize=130;rounded=1;fillColor=#F5AB50;strokeColor=#909090;fontColor=#1A1A1A;" parent="21" vertex="1">
                    <mxGeometry width="120" height="100" as="geometry"/>
                </mxCell>
                <mxCell id="23" value="myarmy =&amp;nbsp;0.3113&lt;br&gt;betrayal = 0.8113&lt;br&gt;enemybetrayal = 0.3113&lt;br&gt;expected = 0.1226" style="swimlane;html=1;startSize=130;fontStyle=0;align=left;verticalAlign=middle;spacingRight=1;spacingLeft=13;spacingTop=0;rounded=1;fillColor=#F5AB50;strokeColor=#909090;fontColor=#1A1A1A;" parent="21" vertex="1">
                    <mxGeometry x="120" width="170" height="100" as="geometry"/>
                </mxCell>
                <mxCell id="24" value="[Y]" style="whiteSpace=wrap;html=1;aspect=fixed;align=center;fontSize=28;spacing=0;labelBorderColor=none;rounded=1;fillColor=#F5AB50;strokeColor=#909090;fontColor=#1A1A1A;" parent="1" vertex="1">
                    <mxGeometry x="380" y="-870" width="60" height="60" as="geometry"/>
                </mxCell>
                <mxCell id="25" style="edgeStyle=orthogonalEdgeStyle;orthogonalLoop=1;jettySize=auto;html=1;exitX=0.25;exitY=1;exitDx=0;exitDy=0;fontSize=28;entryX=0.5;entryY=0;entryDx=0;entryDy=0;strokeColor=#182E3E;fontColor=#1A1A1A;labelBackgroundColor=#EEEEEE;" parent="1" source="22" target="27" edge="1">
                    <mxGeometry relative="1" as="geometry">
                        <mxPoint x="40" y="-610" as="targetPoint"/>
                    </mxGeometry>
                </mxCell>
                <mxCell id="26" value="&lt;font style=&quot;font-size: 12px&quot;&gt;impossible {7}&lt;/font&gt;" style="text;html=1;align=center;verticalAlign=middle;resizable=0;points=[];autosize=1;fontSize=28;rounded=1;fontColor=#1A1A1A;" parent="1" vertex="1">
                    <mxGeometry x="-10" y="-710" width="90" height="40" as="geometry"/>
                </mxCell>
                <mxCell id="27" value="[N]" style="whiteSpace=wrap;html=1;aspect=fixed;align=center;fontSize=28;spacing=0;labelBorderColor=none;rounded=1;fillColor=#F5AB50;strokeColor=#909090;fontColor=#1A1A1A;" parent="1" vertex="1">
                    <mxGeometry x="45" y="-630" width="60" height="60" as="geometry"/>
                </mxCell>
                <mxCell id="28" style="edgeStyle=orthogonalEdgeStyle;orthogonalLoop=1;jettySize=auto;html=1;exitX=0.5;exitY=1;exitDx=0;exitDy=0;fontSize=28;entryX=0.5;entryY=0;entryDx=0;entryDy=0;strokeColor=#182E3E;fontColor=#1A1A1A;labelBackgroundColor=#EEEEEE;" parent="1" source="23" target="30" edge="1">
                    <mxGeometry relative="1" as="geometry">
                        <mxPoint x="270" y="-620" as="targetPoint"/>
                    </mxGeometry>
                </mxCell>
                <mxCell id="29" value="&lt;font style=&quot;font-size: 12px&quot;&gt;possible {9,10, 11}&lt;/font&gt;" style="text;html=1;align=center;verticalAlign=middle;resizable=0;points=[];autosize=1;fontSize=28;rounded=1;fontColor=#1A1A1A;" parent="1" vertex="1">
                    <mxGeometry x="115" y="-730" width="110" height="40" as="geometry"/>
                </mxCell>
                <mxCell id="30" value="[M]" style="whiteSpace=wrap;html=1;aspect=fixed;align=center;fontSize=28;spacing=0;labelBorderColor=none;rounded=1;fillColor=#F5AB50;strokeColor=#909090;fontColor=#1A1A1A;" parent="1" vertex="1">
                    <mxGeometry x="165" y="-630" width="60" height="60" as="geometry"/>
                </mxCell>
                <mxCell id="31" value="" style="swimlane;html=1;childLayout=stackLayout;resizeParent=1;resizeParentMax=0;startSize=0;horizontal=0;horizontalStack=1;rounded=1;fillColor=#F5AB50;strokeColor=#909090;fontColor=#1A1A1A;" parent="1" vertex="1">
                    <mxGeometry x="510" y="-860" width="290" height="100" as="geometry"/>
                </mxCell>
                <mxCell id="32" value="myarmy" style="swimlane;html=1;startSize=130;rounded=1;fillColor=#F5AB50;strokeColor=#909090;fontColor=#1A1A1A;" parent="31" vertex="1">
                    <mxGeometry width="120" height="100" as="geometry"/>
                </mxCell>
                <mxCell id="33" value="myarmy =&amp;nbsp;0.4591&lt;br&gt;betrayal = 0.3774&lt;br&gt;enemybetrayal = 0.3774&lt;br&gt;expected = 0.1092" style="swimlane;html=1;startSize=130;fontStyle=0;align=left;verticalAlign=middle;spacingRight=1;spacingLeft=13;spacingTop=0;rounded=1;fillColor=#F5AB50;strokeColor=#909090;fontColor=#1A1A1A;" parent="31" vertex="1">
                    <mxGeometry x="120" width="170" height="100" as="geometry"/>
                </mxCell>
                <mxCell id="34" style="edgeStyle=orthogonalEdgeStyle;orthogonalLoop=1;jettySize=auto;html=1;exitX=0.5;exitY=1;exitDx=0;exitDy=0;fontSize=28;entryX=1;entryY=0;entryDx=0;entryDy=0;strokeColor=#182E3E;fontColor=#1A1A1A;labelBackgroundColor=#EEEEEE;" parent="1" source="32" target="44" edge="1">
                    <mxGeometry relative="1" as="geometry">
                        <mxPoint x="430" y="-550" as="targetPoint"/>
                    </mxGeometry>
                </mxCell>
                <mxCell id="35" style="edgeStyle=orthogonalEdgeStyle;orthogonalLoop=1;jettySize=auto;html=1;exitX=0.076;exitY=0.99;exitDx=0;exitDy=0;fontSize=28;exitPerimeter=0;strokeColor=#182E3E;fontColor=#1A1A1A;labelBackgroundColor=#EEEEEE;" parent="1" source="33" edge="1">
                    <mxGeometry relative="1" as="geometry">
                        <mxPoint x="703" y="-610" as="targetPoint"/>
                    </mxGeometry>
                </mxCell>
                <mxCell id="36" style="edgeStyle=orthogonalEdgeStyle;orthogonalLoop=1;jettySize=auto;html=1;exitX=0.75;exitY=1;exitDx=0;exitDy=0;fontSize=28;strokeColor=#182E3E;fontColor=#1A1A1A;labelBackgroundColor=#EEEEEE;" parent="1" source="33" edge="1">
                    <mxGeometry relative="1" as="geometry">
                        <mxPoint x="788" y="-610" as="targetPoint"/>
                    </mxGeometry>
                </mxCell>
                <mxCell id="37" value="&lt;font style=&quot;font-size: 12px&quot;&gt;medium {6, 8}&lt;/font&gt;" style="text;html=1;align=center;verticalAlign=middle;resizable=0;points=[];autosize=1;fontSize=28;rounded=1;fontColor=#1A1A1A;" parent="1" vertex="1">
                    <mxGeometry x="640" y="-720" width="90" height="40" as="geometry"/>
                </mxCell>
                <mxCell id="39" value="&lt;font style=&quot;font-size: 12px&quot;&gt;large {5}&lt;/font&gt;" style="text;html=1;align=center;verticalAlign=middle;resizable=0;points=[];autosize=1;fontSize=28;rounded=1;fontColor=#1A1A1A;" parent="1" vertex="1">
                    <mxGeometry x="756" y="-720" width="60" height="40" as="geometry"/>
                </mxCell>
                <mxCell id="40" value="[N]" style="whiteSpace=wrap;html=1;aspect=fixed;align=center;fontSize=28;spacing=0;labelBorderColor=none;rounded=1;fillColor=#F5AB50;strokeColor=#909090;fontColor=#1A1A1A;" parent="1" vertex="1">
                    <mxGeometry x="760" y="-610" width="60" height="60" as="geometry"/>
                </mxCell>
                <mxCell id="41" value="[N]" style="whiteSpace=wrap;html=1;aspect=fixed;align=center;fontSize=28;spacing=0;labelBorderColor=none;rounded=1;fillColor=#F5AB50;strokeColor=#909090;fontColor=#1A1A1A;" parent="1" vertex="1">
                    <mxGeometry x="675" y="-610" width="60" height="60" as="geometry"/>
                </mxCell>
                <mxCell id="42" value="&lt;font style=&quot;font-size: 12px&quot;&gt;small {2, 4, 12}&lt;/font&gt;" style="text;html=1;align=center;verticalAlign=middle;resizable=0;points=[];autosize=1;fontSize=28;rounded=1;fontColor=#1A1A1A;" parent="1" vertex="1">
                    <mxGeometry x="450" y="-740" width="90" height="40" as="geometry"/>
                </mxCell>
                <mxCell id="43" value="" style="swimlane;html=1;childLayout=stackLayout;resizeParent=1;resizeParentMax=0;startSize=0;horizontal=0;horizontalStack=1;rounded=1;fillColor=#F5AB50;strokeColor=#909090;fontColor=#1A1A1A;" parent="1" vertex="1">
                    <mxGeometry x="300" y="-650" width="290" height="100" as="geometry"/>
                </mxCell>
                <mxCell id="44" value="betrayal" style="swimlane;html=1;startSize=130;rounded=1;fillColor=#F5AB50;strokeColor=#909090;fontColor=#1A1A1A;" parent="43" vertex="1">
                    <mxGeometry width="120" height="100" as="geometry"/>
                </mxCell>
                <mxCell id="45" value="betrayal = 0.9183&lt;br&gt;enemybetrayal = 0.9183&lt;br&gt;expected = 0" style="swimlane;html=1;startSize=130;fontStyle=0;align=left;verticalAlign=middle;spacingRight=1;spacingLeft=13;spacingTop=0;rounded=1;fillColor=#F5AB50;strokeColor=#909090;fontColor=#1A1A1A;" parent="43" vertex="1">
                    <mxGeometry x="120" width="170" height="100" as="geometry"/>
                </mxCell>
                <mxCell id="46" style="edgeStyle=orthogonalEdgeStyle;orthogonalLoop=1;jettySize=auto;html=1;exitX=0.5;exitY=1;exitDx=0;exitDy=0;fontSize=28;entryX=0;entryY=0;entryDx=0;entryDy=0;strokeColor=#182E3E;fontColor=#1A1A1A;labelBackgroundColor=#EEEEEE;" parent="1" source="44" target="53" edge="1">
                    <mxGeometry relative="1" as="geometry">
                        <mxPoint x="250" y="-390" as="targetPoint"/>
                    </mxGeometry>
                </mxCell>
                <mxCell id="47" style="edgeStyle=orthogonalEdgeStyle;orthogonalLoop=1;jettySize=auto;html=1;exitX=0.5;exitY=1;exitDx=0;exitDy=0;fontSize=28;strokeColor=#182E3E;fontColor=#1A1A1A;labelBackgroundColor=#EEEEEE;" parent="1" source="45" edge="1">
                    <mxGeometry relative="1" as="geometry">
                        <mxPoint x="620" y="-430" as="targetPoint"/>
                    </mxGeometry>
                </mxCell>
                <mxCell id="48" value="&lt;font style=&quot;font-size: 12px&quot;&gt;impossible {2}&lt;/font&gt;" style="text;html=1;align=center;verticalAlign=middle;resizable=0;points=[];autosize=1;fontSize=28;rounded=1;fontColor=#1A1A1A;" parent="1" vertex="1">
                    <mxGeometry x="525" y="-530" width="90" height="40" as="geometry"/>
                </mxCell>
                <mxCell id="49" value="&lt;font style=&quot;font-size: 12px&quot;&gt;possible {4, 12}&lt;/font&gt;" style="text;html=1;align=center;verticalAlign=middle;resizable=0;points=[];autosize=1;fontSize=28;rounded=1;fontColor=#1A1A1A;" parent="1" vertex="1">
                    <mxGeometry x="250" y="-540" width="100" height="40" as="geometry"/>
                </mxCell>
                <mxCell id="50" value="[Y]" style="whiteSpace=wrap;html=1;aspect=fixed;align=center;fontSize=28;spacing=0;labelBorderColor=none;rounded=1;fillColor=#F5AB50;strokeColor=#909090;fontColor=#1A1A1A;" parent="1" vertex="1">
                    <mxGeometry x="590" y="-440" width="60" height="60" as="geometry"/>
                </mxCell>
                <mxCell id="51" value="" style="swimlane;html=1;childLayout=stackLayout;resizeParent=1;resizeParentMax=0;startSize=0;horizontal=0;horizontalStack=1;rounded=1;fillColor=#F5AB50;strokeColor=#909090;fontColor=#1A1A1A;" parent="1" vertex="1">
                    <mxGeometry x="120" y="-450" width="290" height="100" as="geometry"/>
                </mxCell>
                <mxCell id="52" value="ennemybetrayal" style="swimlane;html=1;startSize=130;rounded=1;fillColor=#F5AB50;strokeColor=#909090;fontColor=#1A1A1A;" parent="51" vertex="1">
                    <mxGeometry width="120" height="100" as="geometry"/>
                </mxCell>
                <mxCell id="53" value="enemybetrayal = 1&lt;br&gt;expected = 0" style="swimlane;html=1;startSize=130;fontStyle=0;align=left;verticalAlign=middle;spacingRight=1;spacingLeft=13;spacingTop=0;rounded=1;fillColor=#F5AB50;strokeColor=#909090;fontColor=#1A1A1A;" parent="51" vertex="1">
                    <mxGeometry x="120" width="170" height="100" as="geometry"/>
                </mxCell>
                <mxCell id="54" style="edgeStyle=orthogonalEdgeStyle;orthogonalLoop=1;jettySize=auto;html=1;exitX=0.75;exitY=1;exitDx=0;exitDy=0;fontSize=28;entryX=0.5;entryY=0;entryDx=0;entryDy=0;strokeColor=#182E3E;fontColor=#1A1A1A;labelBackgroundColor=#EEEEEE;" parent="1" source="52" target="59" edge="1">
                    <mxGeometry relative="1" as="geometry">
                        <mxPoint x="130" y="-270" as="targetPoint"/>
                    </mxGeometry>
                </mxCell>
                <mxCell id="55" style="edgeStyle=orthogonalEdgeStyle;orthogonalLoop=1;jettySize=auto;html=1;exitX=0.5;exitY=1;exitDx=0;exitDy=0;fontSize=28;entryX=0.5;entryY=0;entryDx=0;entryDy=0;strokeColor=#182E3E;fontColor=#1A1A1A;labelBackgroundColor=#EEEEEE;" parent="1" source="53" target="58" edge="1">
                    <mxGeometry relative="1" as="geometry">
                        <mxPoint x="420" y="-340" as="targetPoint"/>
                        <mxPoint x="325" y="-420" as="sourcePoint"/>
                    </mxGeometry>
                </mxCell>
                <mxCell id="56" value="&lt;font style=&quot;font-size: 12px&quot;&gt;possible {4}&lt;/font&gt;" style="text;html=1;align=center;verticalAlign=middle;resizable=0;points=[];autosize=1;fontSize=28;rounded=1;fontColor=#1A1A1A;" parent="1" vertex="1">
                    <mxGeometry x="130" y="-340" width="80" height="40" as="geometry"/>
                </mxCell>
                <mxCell id="57" value="&lt;font style=&quot;font-size: 12px&quot;&gt;impossible {12}&lt;/font&gt;" style="text;html=1;align=center;verticalAlign=middle;resizable=0;points=[];autosize=1;fontSize=28;rounded=1;fontColor=#1A1A1A;" parent="1" vertex="1">
                    <mxGeometry x="320" y="-340" width="100" height="40" as="geometry"/>
                </mxCell>
                <mxCell id="58" value="[M]" style="whiteSpace=wrap;html=1;aspect=fixed;align=center;fontSize=28;spacing=0;labelBorderColor=none;rounded=1;fillColor=#F5AB50;strokeColor=#909090;fontColor=#1A1A1A;" parent="1" vertex="1">
                    <mxGeometry x="350" y="-260" width="60" height="60" as="geometry"/>
                </mxCell>
                <mxCell id="59" value="[N]" style="whiteSpace=wrap;html=1;aspect=fixed;align=center;fontSize=28;spacing=0;labelBorderColor=none;rounded=1;fillColor=#F5AB50;strokeColor=#909090;fontColor=#1A1A1A;" parent="1" vertex="1">
                    <mxGeometry x="100" y="-260" width="60" height="60" as="geometry"/>
                </mxCell>
            </root>
        </mxGraphModel>
    </diagram>
</mxfile>